<mxfile host="app.diagrams.net" agent="Mozilla/5.0 (Windows NT 10.0; Win64; x64) AppleWebKit/537.36 (KHTML, like Gecko) Chrome/127.0.0.0 Safari/537.36" version="24.7.7" pages="2">
  <diagram name="Trang-1" id="9q1nHxpj4mCgf7gG6lU8">
    <mxGraphModel dx="989" dy="514" grid="1" gridSize="10" guides="1" tooltips="1" connect="1" arrows="1" fold="1" page="1" pageScale="1" pageWidth="827" pageHeight="1169" math="0" shadow="0">
      <root>
        <mxCell id="0" />
        <mxCell id="1" parent="0" />
        <mxCell id="oQ7SV3uOmJCRB0GvWH9f-15" value="" style="rounded=0;whiteSpace=wrap;html=1;fillColor=#d5e8d4;strokeColor=#82b366;fontSize=18;" vertex="1" parent="1">
          <mxGeometry x="80" y="240" width="550" height="210" as="geometry" />
        </mxCell>
        <mxCell id="oQ7SV3uOmJCRB0GvWH9f-1" value="&lt;b&gt;&lt;font color=&quot;#3333ff&quot;&gt;1. Các thực thể và mối quan hệ giữa chúng&lt;/font&gt;&lt;/b&gt;" style="text;html=1;align=center;verticalAlign=middle;whiteSpace=wrap;rounded=0;fontSize=18;" vertex="1" parent="1">
          <mxGeometry x="187.5" y="290" width="385" height="30" as="geometry" />
        </mxCell>
        <mxCell id="oQ7SV3uOmJCRB0GvWH9f-6" style="edgeStyle=orthogonalEdgeStyle;rounded=0;orthogonalLoop=1;jettySize=auto;html=1;exitX=1;exitY=0.5;exitDx=0;exitDy=0;entryX=0;entryY=0.5;entryDx=0;entryDy=0;endArrow=none;endFill=0;fontSize=18;" edge="1" parent="1">
          <mxGeometry relative="1" as="geometry">
            <mxPoint x="410.0000000000002" y="390" as="sourcePoint" />
            <mxPoint x="529.9999999999998" y="390" as="targetPoint" />
          </mxGeometry>
        </mxCell>
        <mxCell id="oQ7SV3uOmJCRB0GvWH9f-5" style="edgeStyle=orthogonalEdgeStyle;rounded=0;orthogonalLoop=1;jettySize=auto;html=1;exitX=1;exitY=0.5;exitDx=0;exitDy=0;entryX=0;entryY=0.5;entryDx=0;entryDy=0;endArrow=none;endFill=0;fontSize=18;" edge="1" parent="1">
          <mxGeometry relative="1" as="geometry">
            <mxPoint x="190" y="390" as="sourcePoint" />
            <mxPoint x="310" y="390" as="targetPoint" />
          </mxGeometry>
        </mxCell>
        <mxCell id="oQ7SV3uOmJCRB0GvWH9f-7" value="Nhân viên" style="text;html=1;align=center;verticalAlign=middle;resizable=0;points=[];autosize=1;strokeColor=none;fillColor=none;fontSize=18;" vertex="1" parent="1">
          <mxGeometry x="80" y="370" width="100" height="40" as="geometry" />
        </mxCell>
        <mxCell id="oQ7SV3uOmJCRB0GvWH9f-8" value="Sách" style="text;html=1;align=center;verticalAlign=middle;resizable=0;points=[];autosize=1;strokeColor=none;fillColor=none;fontSize=18;" vertex="1" parent="1">
          <mxGeometry x="335" y="370" width="60" height="40" as="geometry" />
        </mxCell>
        <mxCell id="oQ7SV3uOmJCRB0GvWH9f-9" value="Tác giả" style="text;html=1;align=center;verticalAlign=middle;resizable=0;points=[];autosize=1;strokeColor=none;fillColor=none;fontSize=18;" vertex="1" parent="1">
          <mxGeometry x="540" y="370" width="80" height="40" as="geometry" />
        </mxCell>
        <mxCell id="oQ7SV3uOmJCRB0GvWH9f-10" value="n" style="text;html=1;align=center;verticalAlign=middle;resizable=0;points=[];autosize=1;strokeColor=none;fillColor=none;fontSize=18;" vertex="1" parent="1">
          <mxGeometry x="180" y="353" width="30" height="40" as="geometry" />
        </mxCell>
        <mxCell id="oQ7SV3uOmJCRB0GvWH9f-11" value="n" style="text;html=1;align=center;verticalAlign=middle;resizable=0;points=[];autosize=1;strokeColor=none;fillColor=none;fontSize=18;" vertex="1" parent="1">
          <mxGeometry x="290" y="353" width="30" height="40" as="geometry" />
        </mxCell>
        <mxCell id="oQ7SV3uOmJCRB0GvWH9f-12" value="1" style="text;html=1;align=center;verticalAlign=middle;resizable=0;points=[];autosize=1;strokeColor=none;fillColor=none;fontSize=18;" vertex="1" parent="1">
          <mxGeometry x="510" y="353" width="30" height="40" as="geometry" />
        </mxCell>
        <mxCell id="oQ7SV3uOmJCRB0GvWH9f-13" value="n" style="text;html=1;align=center;verticalAlign=middle;resizable=0;points=[];autosize=1;strokeColor=none;fillColor=none;fontSize=18;" vertex="1" parent="1">
          <mxGeometry x="400" y="353" width="30" height="40" as="geometry" />
        </mxCell>
      </root>
    </mxGraphModel>
  </diagram>
  <diagram id="uYPxH76roiQBHZ6HFA4b" name="Trang-2">
    <mxGraphModel dx="1195" dy="622" grid="1" gridSize="10" guides="1" tooltips="1" connect="1" arrows="1" fold="1" page="1" pageScale="1" pageWidth="827" pageHeight="1169" math="0" shadow="0">
      <root>
        <mxCell id="0" />
        <mxCell id="1" parent="0" />
        <mxCell id="5Z1wS6oHaSantgoYat1p-30" value="" style="rounded=0;whiteSpace=wrap;html=1;fillColor=#dae8fc;strokeColor=#6c8ebf;opacity=60;" vertex="1" parent="1">
          <mxGeometry x="80" y="185" width="1000" height="410" as="geometry" />
        </mxCell>
        <mxCell id="ywd82fUKIrLHTQjzzXWJ-2" value="&lt;b&gt;&lt;font color=&quot;#3333ff&quot;&gt;2. ERD&lt;/font&gt;&lt;/b&gt;" style="text;html=1;align=center;verticalAlign=middle;whiteSpace=wrap;rounded=0;fontSize=18;" vertex="1" parent="1">
          <mxGeometry x="380" y="240" width="400" height="40" as="geometry" />
        </mxCell>
        <mxCell id="5Z1wS6oHaSantgoYat1p-25" style="rounded=0;orthogonalLoop=1;jettySize=auto;html=1;exitX=0.5;exitY=1;exitDx=0;exitDy=0;entryX=0.5;entryY=1;entryDx=0;entryDy=0;endArrow=none;endFill=0;" edge="1" parent="1" source="5Z1wS6oHaSantgoYat1p-1" target="5Z1wS6oHaSantgoYat1p-9">
          <mxGeometry relative="1" as="geometry" />
        </mxCell>
        <mxCell id="5Z1wS6oHaSantgoYat1p-26" style="rounded=0;orthogonalLoop=1;jettySize=auto;html=1;exitX=0.5;exitY=1;exitDx=0;exitDy=0;entryX=0.5;entryY=1;entryDx=0;entryDy=0;endArrow=none;endFill=0;" edge="1" parent="1" source="5Z1wS6oHaSantgoYat1p-1" target="5Z1wS6oHaSantgoYat1p-5">
          <mxGeometry relative="1" as="geometry" />
        </mxCell>
        <mxCell id="5Z1wS6oHaSantgoYat1p-27" style="rounded=0;orthogonalLoop=1;jettySize=auto;html=1;exitX=0.5;exitY=1;exitDx=0;exitDy=0;entryX=0.5;entryY=1;entryDx=0;entryDy=0;endArrow=none;endFill=0;" edge="1" parent="1" source="5Z1wS6oHaSantgoYat1p-1" target="5Z1wS6oHaSantgoYat1p-10">
          <mxGeometry relative="1" as="geometry" />
        </mxCell>
        <mxCell id="5Z1wS6oHaSantgoYat1p-1" value="Sách" style="rounded=0;whiteSpace=wrap;html=1;" vertex="1" parent="1">
          <mxGeometry x="560" y="360" width="120" height="60" as="geometry" />
        </mxCell>
        <mxCell id="5Z1wS6oHaSantgoYat1p-12" style="edgeStyle=orthogonalEdgeStyle;rounded=0;orthogonalLoop=1;jettySize=auto;html=1;exitX=1;exitY=0.5;exitDx=0;exitDy=0;entryX=0;entryY=0.5;entryDx=0;entryDy=0;endArrow=none;endFill=0;" edge="1" parent="1" source="5Z1wS6oHaSantgoYat1p-2" target="5Z1wS6oHaSantgoYat1p-11">
          <mxGeometry relative="1" as="geometry" />
        </mxCell>
        <mxCell id="5Z1wS6oHaSantgoYat1p-22" style="rounded=0;orthogonalLoop=1;jettySize=auto;html=1;exitX=0.5;exitY=1;exitDx=0;exitDy=0;entryX=0.5;entryY=1;entryDx=0;entryDy=0;endArrow=none;endFill=0;" edge="1" parent="1" source="5Z1wS6oHaSantgoYat1p-2" target="5Z1wS6oHaSantgoYat1p-8">
          <mxGeometry relative="1" as="geometry" />
        </mxCell>
        <mxCell id="5Z1wS6oHaSantgoYat1p-23" style="rounded=0;orthogonalLoop=1;jettySize=auto;html=1;exitX=0.5;exitY=1;exitDx=0;exitDy=0;entryX=0.5;entryY=1;entryDx=0;entryDy=0;endArrow=none;endFill=0;" edge="1" parent="1" source="5Z1wS6oHaSantgoYat1p-2" target="5Z1wS6oHaSantgoYat1p-7">
          <mxGeometry relative="1" as="geometry" />
        </mxCell>
        <mxCell id="5Z1wS6oHaSantgoYat1p-24" style="rounded=0;orthogonalLoop=1;jettySize=auto;html=1;exitX=0.5;exitY=1;exitDx=0;exitDy=0;entryX=0.5;entryY=1;entryDx=0;entryDy=0;endArrow=none;endFill=0;" edge="1" parent="1" source="5Z1wS6oHaSantgoYat1p-2" target="5Z1wS6oHaSantgoYat1p-4">
          <mxGeometry relative="1" as="geometry" />
        </mxCell>
        <mxCell id="5Z1wS6oHaSantgoYat1p-2" value="Nhận viên" style="rounded=0;whiteSpace=wrap;html=1;" vertex="1" parent="1">
          <mxGeometry x="240" y="360" width="120" height="60" as="geometry" />
        </mxCell>
        <mxCell id="5Z1wS6oHaSantgoYat1p-15" style="edgeStyle=orthogonalEdgeStyle;rounded=0;orthogonalLoop=1;jettySize=auto;html=1;exitX=0;exitY=0.5;exitDx=0;exitDy=0;entryX=1;entryY=0.5;entryDx=0;entryDy=0;endArrow=none;endFill=0;" edge="1" parent="1" source="5Z1wS6oHaSantgoYat1p-3" target="5Z1wS6oHaSantgoYat1p-14">
          <mxGeometry relative="1" as="geometry" />
        </mxCell>
        <mxCell id="5Z1wS6oHaSantgoYat1p-28" style="rounded=0;orthogonalLoop=1;jettySize=auto;html=1;exitX=0.5;exitY=1;exitDx=0;exitDy=0;entryX=0.5;entryY=1;entryDx=0;entryDy=0;endArrow=none;endFill=0;" edge="1" parent="1" source="5Z1wS6oHaSantgoYat1p-3" target="5Z1wS6oHaSantgoYat1p-6">
          <mxGeometry relative="1" as="geometry" />
        </mxCell>
        <mxCell id="5Z1wS6oHaSantgoYat1p-29" style="rounded=0;orthogonalLoop=1;jettySize=auto;html=1;exitX=0.5;exitY=1;exitDx=0;exitDy=0;entryX=0.5;entryY=1;entryDx=0;entryDy=0;endArrow=none;endFill=0;" edge="1" parent="1" source="5Z1wS6oHaSantgoYat1p-3" target="5Z1wS6oHaSantgoYat1p-17">
          <mxGeometry relative="1" as="geometry" />
        </mxCell>
        <mxCell id="5Z1wS6oHaSantgoYat1p-3" value="Tác giả" style="rounded=0;whiteSpace=wrap;html=1;" vertex="1" parent="1">
          <mxGeometry x="880" y="360" width="120" height="60" as="geometry" />
        </mxCell>
        <mxCell id="5Z1wS6oHaSantgoYat1p-4" value="&lt;u&gt;ID&lt;/u&gt;" style="ellipse;whiteSpace=wrap;html=1;direction=west;" vertex="1" parent="1">
          <mxGeometry x="300" y="480" width="80" height="40" as="geometry" />
        </mxCell>
        <mxCell id="5Z1wS6oHaSantgoYat1p-5" value="&lt;u&gt;ID&lt;/u&gt;" style="ellipse;whiteSpace=wrap;html=1;direction=west;" vertex="1" parent="1">
          <mxGeometry x="580" y="480" width="80" height="40" as="geometry" />
        </mxCell>
        <mxCell id="5Z1wS6oHaSantgoYat1p-6" value="&lt;u&gt;ID&lt;/u&gt;" style="ellipse;whiteSpace=wrap;html=1;direction=west;" vertex="1" parent="1">
          <mxGeometry x="840" y="480" width="80" height="40" as="geometry" />
        </mxCell>
        <mxCell id="5Z1wS6oHaSantgoYat1p-7" value="Tên" style="ellipse;whiteSpace=wrap;html=1;direction=west;" vertex="1" parent="1">
          <mxGeometry x="210" y="480" width="80" height="40" as="geometry" />
        </mxCell>
        <mxCell id="5Z1wS6oHaSantgoYat1p-8" value="Địa chỉ" style="ellipse;whiteSpace=wrap;html=1;direction=west;" vertex="1" parent="1">
          <mxGeometry x="120" y="480" width="80" height="40" as="geometry" />
        </mxCell>
        <mxCell id="5Z1wS6oHaSantgoYat1p-9" value="Tên" style="ellipse;whiteSpace=wrap;html=1;direction=west;" vertex="1" parent="1">
          <mxGeometry x="490" y="480" width="80" height="40" as="geometry" />
        </mxCell>
        <mxCell id="5Z1wS6oHaSantgoYat1p-10" value="Tác giả" style="ellipse;whiteSpace=wrap;html=1;direction=west;" vertex="1" parent="1">
          <mxGeometry x="670" y="480" width="80" height="40" as="geometry" />
        </mxCell>
        <mxCell id="5Z1wS6oHaSantgoYat1p-13" style="edgeStyle=orthogonalEdgeStyle;rounded=0;orthogonalLoop=1;jettySize=auto;html=1;exitX=1;exitY=0.5;exitDx=0;exitDy=0;entryX=0;entryY=0.5;entryDx=0;entryDy=0;endArrow=none;endFill=0;" edge="1" parent="1" source="5Z1wS6oHaSantgoYat1p-11" target="5Z1wS6oHaSantgoYat1p-1">
          <mxGeometry relative="1" as="geometry" />
        </mxCell>
        <mxCell id="5Z1wS6oHaSantgoYat1p-11" value="Bán" style="rhombus;whiteSpace=wrap;html=1;" vertex="1" parent="1">
          <mxGeometry x="420" y="360" width="80" height="60" as="geometry" />
        </mxCell>
        <mxCell id="5Z1wS6oHaSantgoYat1p-16" style="edgeStyle=orthogonalEdgeStyle;rounded=0;orthogonalLoop=1;jettySize=auto;html=1;exitX=0;exitY=0.5;exitDx=0;exitDy=0;entryX=1;entryY=0.5;entryDx=0;entryDy=0;endArrow=none;endFill=0;" edge="1" parent="1" source="5Z1wS6oHaSantgoYat1p-14" target="5Z1wS6oHaSantgoYat1p-1">
          <mxGeometry relative="1" as="geometry" />
        </mxCell>
        <mxCell id="5Z1wS6oHaSantgoYat1p-14" value="Viết" style="rhombus;whiteSpace=wrap;html=1;" vertex="1" parent="1">
          <mxGeometry x="740" y="360" width="80" height="60" as="geometry" />
        </mxCell>
        <mxCell id="5Z1wS6oHaSantgoYat1p-17" value="Tên" style="ellipse;whiteSpace=wrap;html=1;direction=west;" vertex="1" parent="1">
          <mxGeometry x="950" y="480" width="80" height="40" as="geometry" />
        </mxCell>
        <mxCell id="5Z1wS6oHaSantgoYat1p-18" value="1" style="text;html=1;align=center;verticalAlign=middle;resizable=0;points=[];autosize=1;strokeColor=none;fillColor=none;" vertex="1" parent="1">
          <mxGeometry x="845" y="368" width="30" height="30" as="geometry" />
        </mxCell>
        <mxCell id="5Z1wS6oHaSantgoYat1p-19" value="n" style="text;html=1;align=center;verticalAlign=middle;resizable=0;points=[];autosize=1;strokeColor=none;fillColor=none;" vertex="1" parent="1">
          <mxGeometry x="675" y="368" width="30" height="30" as="geometry" />
        </mxCell>
        <mxCell id="5Z1wS6oHaSantgoYat1p-20" value="n" style="text;html=1;align=center;verticalAlign=middle;resizable=0;points=[];autosize=1;strokeColor=none;fillColor=none;" vertex="1" parent="1">
          <mxGeometry x="535" y="368" width="30" height="30" as="geometry" />
        </mxCell>
        <mxCell id="5Z1wS6oHaSantgoYat1p-21" value="n" style="text;html=1;align=center;verticalAlign=middle;resizable=0;points=[];autosize=1;strokeColor=none;fillColor=none;" vertex="1" parent="1">
          <mxGeometry x="355" y="368" width="30" height="30" as="geometry" />
        </mxCell>
      </root>
    </mxGraphModel>
  </diagram>
</mxfile>
